<mxfile host="app.diagrams.net" modified="2024-05-21T01:05:37.194Z" agent="Mozilla/5.0 (Windows NT 10.0; Win64; x64) AppleWebKit/537.36 (KHTML, like Gecko) Chrome/114.0.0.0 Safari/537.36" etag="OMt8XrcNnkRLtimRx7Om" version="24.4.4" type="device">
  <diagram name="P치gina-1" id="P5CVYJI0xrZxxHA3R24b">
    <mxGraphModel dx="880" dy="396" grid="1" gridSize="10" guides="1" tooltips="1" connect="1" arrows="1" fold="1" page="1" pageScale="1" pageWidth="827" pageHeight="1169" math="0" shadow="0">
      <root>
        <mxCell id="0" />
        <mxCell id="1" parent="0" />
        <mxCell id="sAw0vk0DKC4kc4wDuIq9-1" value="&lt;font color=&quot;#ff0000&quot;&gt;Mobile App PersonalAssist&lt;/font&gt;" style="rounded=1;whiteSpace=wrap;html=1;fillColor=#dae8fc;strokeColor=#6c8ebf;" parent="1" vertex="1">
          <mxGeometry x="500" y="230" width="120" height="250" as="geometry" />
        </mxCell>
        <mxCell id="sAw0vk0DKC4kc4wDuIq9-2" value="&lt;font color=&quot;#ff0000&quot;&gt;BackEnd {Python}&lt;/font&gt;" style="rounded=1;whiteSpace=wrap;html=1;fillColor=#dae8fc;strokeColor=#6c8ebf;" parent="1" vertex="1">
          <mxGeometry x="775" y="395" width="120" height="60" as="geometry" />
        </mxCell>
        <mxCell id="sAw0vk0DKC4kc4wDuIq9-3" value="&lt;font color=&quot;#ff0000&quot;&gt;OracleSQL&lt;/font&gt;&lt;div&gt;&lt;font color=&quot;#ff0000&quot;&gt;/usuarios&lt;/font&gt;&lt;/div&gt;&lt;div&gt;&lt;font color=&quot;#ff0000&quot;&gt;/usuarios&lt;/font&gt;&lt;/div&gt;&lt;div&gt;&lt;br&gt;&lt;/div&gt;" style="shape=cylinder3;whiteSpace=wrap;html=1;boundedLbl=1;backgroundOutline=1;size=15;fillColor=#dae8fc;strokeColor=#6c8ebf;" parent="1" vertex="1">
          <mxGeometry x="1010" y="220" width="100" height="90" as="geometry" />
        </mxCell>
        <mxCell id="sAw0vk0DKC4kc4wDuIq9-4" value="&lt;div&gt;&lt;font color=&quot;#ff0000&quot;&gt;Backend&lt;/font&gt;&lt;/div&gt;&lt;div&gt;&lt;font color=&quot;#ff0000&quot;&gt;/redefinir_senha&lt;/font&gt;&lt;/div&gt;&lt;div&gt;&lt;font color=&quot;#ff0000&quot;&gt;/recuperar_senha&lt;/font&gt;&lt;/div&gt;&lt;div&gt;&lt;font color=&quot;#ff0000&quot;&gt;/usuarios&lt;/font&gt;&lt;/div&gt;&lt;div&gt;&lt;font color=&quot;#ff0000&quot;&gt;/register&lt;/font&gt;&lt;/div&gt;&lt;div&gt;&lt;font color=&quot;#ff0000&quot;&gt;/login&lt;/font&gt;&lt;/div&gt;&lt;div&gt;&lt;br&gt;&lt;/div&gt;" style="shape=cylinder3;whiteSpace=wrap;html=1;boundedLbl=1;backgroundOutline=1;size=15;fillColor=#dae8fc;strokeColor=#6c8ebf;" parent="1" vertex="1">
          <mxGeometry x="1000" y="360" width="120" height="130" as="geometry" />
        </mxCell>
        <mxCell id="sAw0vk0DKC4kc4wDuIq9-7" value="" style="endArrow=classic;html=1;rounded=0;entryX=0;entryY=0.5;entryDx=0;entryDy=0;" parent="1" edge="1" target="sAw0vk0DKC4kc4wDuIq9-2">
          <mxGeometry width="50" height="50" relative="1" as="geometry">
            <mxPoint x="620" y="365" as="sourcePoint" />
            <mxPoint x="800" y="425" as="targetPoint" />
            <Array as="points">
              <mxPoint x="720" y="365" />
              <mxPoint x="720" y="425" />
            </Array>
          </mxGeometry>
        </mxCell>
        <mxCell id="sAw0vk0DKC4kc4wDuIq9-8" value="" style="endArrow=classic;html=1;rounded=0;exitX=1;exitY=0.5;exitDx=0;exitDy=0;" parent="1" source="sAw0vk0DKC4kc4wDuIq9-2" target="sAw0vk0DKC4kc4wDuIq9-4" edge="1">
          <mxGeometry width="50" height="50" relative="1" as="geometry">
            <mxPoint x="870" y="520" as="sourcePoint" />
            <mxPoint x="920" y="470" as="targetPoint" />
          </mxGeometry>
        </mxCell>
        <mxCell id="sAw0vk0DKC4kc4wDuIq9-9" value="" style="endArrow=classic;html=1;rounded=0;exitX=1;exitY=0.25;exitDx=0;exitDy=0;entryX=-0.01;entryY=0.422;entryDx=0;entryDy=0;entryPerimeter=0;" parent="1" target="sAw0vk0DKC4kc4wDuIq9-3" edge="1">
          <mxGeometry width="50" height="50" relative="1" as="geometry">
            <mxPoint x="620" y="257.5" as="sourcePoint" />
            <mxPoint x="1010" y="230" as="targetPoint" />
          </mxGeometry>
        </mxCell>
        <mxCell id="sAw0vk0DKC4kc4wDuIq9-10" value="&lt;div&gt;&lt;font color=&quot;#ff0000&quot;&gt;PersonalAssist&lt;/font&gt;&lt;/div&gt;" style="rounded=0;whiteSpace=wrap;html=1;labelBackgroundColor=none;labelBorderColor=none;fillColor=#dae8fc;strokeColor=#6c8ebf;" parent="1" vertex="1">
          <mxGeometry x="370" y="585" width="120" height="40" as="geometry" />
        </mxCell>
        <mxCell id="sAw0vk0DKC4kc4wDuIq9-12" value="" style="endArrow=none;dashed=1;html=1;rounded=0;entryX=0.5;entryY=1;entryDx=0;entryDy=0;fontColor=default;labelBackgroundColor=none;labelBorderColor=none;" parent="1" target="sAw0vk0DKC4kc4wDuIq9-10" edge="1">
          <mxGeometry width="50" height="50" relative="1" as="geometry">
            <mxPoint x="430" y="955" as="sourcePoint" />
            <mxPoint x="570" y="825" as="targetPoint" />
          </mxGeometry>
        </mxCell>
        <mxCell id="sAw0vk0DKC4kc4wDuIq9-13" value="" style="endArrow=classic;html=1;rounded=0;fontColor=default;labelBackgroundColor=none;labelBorderColor=none;" parent="1" edge="1">
          <mxGeometry width="50" height="50" relative="1" as="geometry">
            <mxPoint x="430" y="675" as="sourcePoint" />
            <mxPoint x="1200" y="675" as="targetPoint" />
          </mxGeometry>
        </mxCell>
        <mxCell id="sAw0vk0DKC4kc4wDuIq9-14" value="" style="endArrow=none;dashed=1;html=1;rounded=0;fontColor=default;labelBackgroundColor=none;labelBorderColor=none;" parent="1" target="sAw0vk0DKC4kc4wDuIq9-15" edge="1">
          <mxGeometry width="50" height="50" relative="1" as="geometry">
            <mxPoint x="570" y="955" as="sourcePoint" />
            <mxPoint x="570" y="625" as="targetPoint" />
          </mxGeometry>
        </mxCell>
        <mxCell id="sAw0vk0DKC4kc4wDuIq9-15" value="Usu치rios (OracleSQL)" style="rounded=0;whiteSpace=wrap;html=1;labelBackgroundColor=none;labelBorderColor=none;fillColor=#dae8fc;strokeColor=#6c8ebf;" parent="1" vertex="1">
          <mxGeometry x="520" y="585" width="100" height="40" as="geometry" />
        </mxCell>
        <mxCell id="sAw0vk0DKC4kc4wDuIq9-16" value="&lt;div&gt;Registra o usu치rio no App&lt;/div&gt;" style="text;html=1;align=center;verticalAlign=middle;whiteSpace=wrap;rounded=0;fontColor=default;labelBackgroundColor=none;labelBorderColor=none;" parent="1" vertex="1">
          <mxGeometry x="450" y="645" width="90" height="30" as="geometry" />
        </mxCell>
        <mxCell id="sAw0vk0DKC4kc4wDuIq9-18" value="" style="html=1;verticalAlign=bottom;endArrow=open;dashed=1;endSize=8;curved=0;rounded=0;fontColor=default;labelBackgroundColor=none;labelBorderColor=none;" parent="1" edge="1">
          <mxGeometry relative="1" as="geometry">
            <mxPoint x="1200" y="735" as="sourcePoint" />
            <mxPoint x="429" y="735" as="targetPoint" />
          </mxGeometry>
        </mxCell>
        <mxCell id="sAw0vk0DKC4kc4wDuIq9-19" value="Cadastro realizado" style="edgeLabel;html=1;align=center;verticalAlign=middle;resizable=0;points=[];fontColor=default;labelBackgroundColor=none;labelBorderColor=none;" parent="sAw0vk0DKC4kc4wDuIq9-18" vertex="1" connectable="0">
          <mxGeometry x="0.0024" y="-7" relative="1" as="geometry">
            <mxPoint x="-314" y="-3" as="offset" />
          </mxGeometry>
        </mxCell>
        <mxCell id="sAw0vk0DKC4kc4wDuIq9-20" value="Chamadas: Redefinir Senha" style="rounded=0;whiteSpace=wrap;html=1;labelBackgroundColor=none;labelBorderColor=none;fillColor=#dae8fc;strokeColor=#6c8ebf;" parent="1" vertex="1">
          <mxGeometry x="670" y="585" width="110" height="40" as="geometry" />
        </mxCell>
        <mxCell id="sAw0vk0DKC4kc4wDuIq9-21" value=":api.recuperar_senha&lt;div&gt;{Backend Python}&lt;/div&gt;" style="rounded=0;whiteSpace=wrap;html=1;labelBackgroundColor=none;labelBorderColor=none;fillColor=#dae8fc;strokeColor=#6c8ebf;" parent="1" vertex="1">
          <mxGeometry x="810" y="585" width="130" height="40" as="geometry" />
        </mxCell>
        <mxCell id="sAw0vk0DKC4kc4wDuIq9-22" value="&lt;div&gt;Usu치rio&lt;/div&gt;" style="rounded=0;whiteSpace=wrap;html=1;labelBackgroundColor=none;labelBorderColor=none;fillColor=#dae8fc;strokeColor=#6c8ebf;" parent="1" vertex="1">
          <mxGeometry x="970" y="585" width="130" height="40" as="geometry" />
        </mxCell>
        <mxCell id="sAw0vk0DKC4kc4wDuIq9-23" value="" style="endArrow=none;dashed=1;html=1;rounded=0;entryX=0.5;entryY=1;entryDx=0;entryDy=0;fontColor=default;labelBackgroundColor=none;labelBorderColor=none;" parent="1" target="sAw0vk0DKC4kc4wDuIq9-20" edge="1">
          <mxGeometry width="50" height="50" relative="1" as="geometry">
            <mxPoint x="725" y="955" as="sourcePoint" />
            <mxPoint x="640" y="615" as="targetPoint" />
          </mxGeometry>
        </mxCell>
        <mxCell id="sAw0vk0DKC4kc4wDuIq9-24" value="" style="endArrow=none;dashed=1;html=1;rounded=0;entryX=0.5;entryY=1;entryDx=0;entryDy=0;fontColor=default;labelBackgroundColor=none;labelBorderColor=none;" parent="1" target="sAw0vk0DKC4kc4wDuIq9-21" edge="1">
          <mxGeometry width="50" height="50" relative="1" as="geometry">
            <mxPoint x="870" y="955" as="sourcePoint" />
            <mxPoint x="640" y="615" as="targetPoint" />
            <Array as="points" />
          </mxGeometry>
        </mxCell>
        <mxCell id="sAw0vk0DKC4kc4wDuIq9-25" value="" style="endArrow=none;dashed=1;html=1;rounded=0;entryX=0.5;entryY=1;entryDx=0;entryDy=0;fontColor=default;labelBackgroundColor=none;labelBorderColor=none;" parent="1" target="sAw0vk0DKC4kc4wDuIq9-22" edge="1">
          <mxGeometry width="50" height="50" relative="1" as="geometry">
            <mxPoint x="1035" y="955" as="sourcePoint" />
            <mxPoint x="640" y="615" as="targetPoint" />
          </mxGeometry>
        </mxCell>
        <mxCell id="sAw0vk0DKC4kc4wDuIq9-26" value="Chamadas: Registro de Usu치rio" style="rounded=0;whiteSpace=wrap;html=1;labelBackgroundColor=none;labelBorderColor=none;fillColor=#dae8fc;strokeColor=#6c8ebf;" parent="1" vertex="1">
          <mxGeometry x="1140" y="585" width="120" height="40" as="geometry" />
        </mxCell>
        <mxCell id="sAw0vk0DKC4kc4wDuIq9-27" value="" style="endArrow=none;dashed=1;html=1;rounded=0;entryX=0.5;entryY=1;entryDx=0;entryDy=0;fontColor=default;labelBackgroundColor=none;labelBorderColor=none;" parent="1" target="sAw0vk0DKC4kc4wDuIq9-26" edge="1">
          <mxGeometry width="50" height="50" relative="1" as="geometry">
            <mxPoint x="1200" y="955" as="sourcePoint" />
            <mxPoint x="800" y="605" as="targetPoint" />
          </mxGeometry>
        </mxCell>
        <mxCell id="sAw0vk0DKC4kc4wDuIq9-29" value=":api.login&lt;div&gt;{Backend Python}&lt;/div&gt;" style="rounded=0;whiteSpace=wrap;html=1;labelBackgroundColor=none;labelBorderColor=none;fillColor=#dae8fc;strokeColor=#6c8ebf;" parent="1" vertex="1">
          <mxGeometry x="1290" y="585" width="120" height="40" as="geometry" />
        </mxCell>
        <mxCell id="sAw0vk0DKC4kc4wDuIq9-30" value="" style="endArrow=none;dashed=1;html=1;rounded=0;entryX=0.5;entryY=1;entryDx=0;entryDy=0;fontColor=default;labelBackgroundColor=none;labelBorderColor=none;" parent="1" target="sAw0vk0DKC4kc4wDuIq9-29" edge="1">
          <mxGeometry width="50" height="50" relative="1" as="geometry">
            <mxPoint x="1350" y="955" as="sourcePoint" />
            <mxPoint x="890" y="615" as="targetPoint" />
          </mxGeometry>
        </mxCell>
        <mxCell id="sAw0vk0DKC4kc4wDuIq9-32" value="Requisi칞칚o de redefini칞칚o de senha do usu치rio" style="text;html=1;align=center;verticalAlign=middle;whiteSpace=wrap;rounded=0;fontColor=default;labelBackgroundColor=none;labelBorderColor=none;" parent="1" vertex="1">
          <mxGeometry x="750" y="730" width="100" height="30" as="geometry" />
        </mxCell>
        <mxCell id="sAw0vk0DKC4kc4wDuIq9-35" value="" style="endArrow=classic;html=1;rounded=0;fontColor=default;labelBackgroundColor=none;labelBorderColor=none;" parent="1" edge="1">
          <mxGeometry width="50" height="50" relative="1" as="geometry">
            <mxPoint x="870" y="775" as="sourcePoint" />
            <mxPoint x="730" y="775" as="targetPoint" />
          </mxGeometry>
        </mxCell>
        <mxCell id="sAw0vk0DKC4kc4wDuIq9-36" value="" style="html=1;verticalAlign=bottom;endArrow=open;dashed=1;endSize=8;curved=0;rounded=0;fontColor=default;labelBackgroundColor=none;labelBorderColor=none;" parent="1" edge="1">
          <mxGeometry relative="1" as="geometry">
            <mxPoint x="875" y="835" as="sourcePoint" />
            <mxPoint x="725" y="835" as="targetPoint" />
          </mxGeometry>
        </mxCell>
        <mxCell id="sAw0vk0DKC4kc4wDuIq9-37" value="Redefini칞칚o de senha&lt;div&gt;ap칩s recebimento de e-mail&lt;/div&gt;&lt;div&gt;&lt;br&gt;&lt;/div&gt;" style="edgeLabel;html=1;align=center;verticalAlign=middle;resizable=0;points=[];fontColor=default;labelBackgroundColor=none;labelBorderColor=none;" parent="sAw0vk0DKC4kc4wDuIq9-36" vertex="1" connectable="0">
          <mxGeometry x="0.0024" y="-7" relative="1" as="geometry">
            <mxPoint y="-23" as="offset" />
          </mxGeometry>
        </mxCell>
        <mxCell id="sAw0vk0DKC4kc4wDuIq9-38" value="" style="html=1;verticalAlign=bottom;endArrow=open;dashed=1;endSize=8;curved=0;rounded=0;fontColor=default;labelBackgroundColor=none;labelBorderColor=none;" parent="1" edge="1">
          <mxGeometry relative="1" as="geometry">
            <mxPoint x="730" y="875" as="sourcePoint" />
            <mxPoint x="430" y="875" as="targetPoint" />
          </mxGeometry>
        </mxCell>
        <mxCell id="sAw0vk0DKC4kc4wDuIq9-39" value="Senha redefinida" style="edgeLabel;html=1;align=center;verticalAlign=middle;resizable=0;points=[];fontColor=default;labelBackgroundColor=none;labelBorderColor=none;" parent="sAw0vk0DKC4kc4wDuIq9-38" vertex="1" connectable="0">
          <mxGeometry x="0.0024" y="-7" relative="1" as="geometry">
            <mxPoint x="1" y="-13" as="offset" />
          </mxGeometry>
        </mxCell>
        <mxCell id="sAw0vk0DKC4kc4wDuIq9-42" value="" style="endArrow=classic;html=1;rounded=0;fontColor=default;labelBackgroundColor=none;labelBorderColor=none;" parent="1" edge="1">
          <mxGeometry width="50" height="50" relative="1" as="geometry">
            <mxPoint x="430" y="955" as="sourcePoint" />
            <mxPoint x="1200" y="955" as="targetPoint" />
          </mxGeometry>
        </mxCell>
        <mxCell id="sAw0vk0DKC4kc4wDuIq9-47" value="" style="endArrow=classic;html=1;rounded=0;fontColor=default;labelBackgroundColor=none;labelBorderColor=none;" parent="1" edge="1">
          <mxGeometry width="50" height="50" relative="1" as="geometry">
            <mxPoint x="430" y="915" as="sourcePoint" />
            <mxPoint x="1350" y="915" as="targetPoint" />
          </mxGeometry>
        </mxCell>
        <mxCell id="sAw0vk0DKC4kc4wDuIq9-48" value="Login Realizado" style="text;html=1;align=center;verticalAlign=middle;whiteSpace=wrap;rounded=0;fontColor=default;labelBackgroundColor=none;labelBorderColor=none;" parent="1" vertex="1">
          <mxGeometry x="460" y="885" width="85" height="30" as="geometry" />
        </mxCell>
      </root>
    </mxGraphModel>
  </diagram>
</mxfile>
